# xmcd
#
# Track frame offsets:
#	150
#	13884
#	26700
#	40459
#	68521
#	82087
#	94359
#	106581
#	123723
#	147129
#	158801
#	183347
#	190011
#	212170
#	226907
#	251836
#	267020
#	284181
#	303665
#	324847
#
# Disc length: 4622 seconds
#
# Revision: 0
# Processed by: cddbd v1.5.2PL0 Copyright (c) Steve Scherf et al.
# Submitted via: audiograbber 1.83.01
#
DISCID=22120c14
DTITLE=King, B. B. - The Ultimate Collection
DYEAR=2005
DGENRE=Blues
TTITLE0=Three O'Clock Blues
TTITLE1=Please Love Me
TTITLE2=You Upset Me, Baby
TTITLE3=Sweet Sixteen Parts One and Two
TTITLE4=Rock Me Baby
TTITLE5=How Blue Can You Get
TTITLE6=Everyday I Have The Blues
TTITLE7=Sweet Little Angel
TTITLE8=Don't Answer The Door
TTITLE9=Paying The The Cost To Be The Boss
TTITLE10=The Thrill Is Gone
TTITLE11=Nobody Loves Me But My Mother
TTITLE12=Chains And Things
TTITLE13=Ain't Nobody Home
TTITLE14=Never Make A Move Too Soon
TTITLE15=Better Not Look Down
TTITLE16=There Must Must Be A Better World Somewhere
TTITLE17=When Love Comes To Town
TTITLE18=Ten Long Years
TTITLE19=I'll Survive
EXTD=
EXTT0=
EXTT1=
EXTT2=
EXTT3=
EXTT4=
EXTT5=
EXTT6=
EXTT7=
EXTT8=
EXTT9=
EXTT10=
EXTT11=
EXTT12=
EXTT13=
EXTT14=
EXTT15=
EXTT16=
EXTT17=
EXTT18=
EXTT19=
PLAYORDER=
